<?xml version="1.0" encoding="UTF-8" standalone="no"?>
<!-- Created with Inkscape (http://www.inkscape.org/) -->

<svg
   xmlns:dc="http://purl.org/dc/elements/1.1/"
   xmlns:cc="http://creativecommons.org/ns#"
   xmlns:rdf="http://www.w3.org/1999/02/22-rdf-syntax-ns#"
   xmlns:svg="http://www.w3.org/2000/svg"
   xmlns="http://www.w3.org/2000/svg"
   xmlns:sodipodi="http://sodipodi.sourceforge.net/DTD/sodipodi-0.dtd"
   xmlns:inkscape="http://www.inkscape.org/namespaces/inkscape"
   width="210mm"
   height="297mm"
   viewBox="0 0 210 297"
   version="1.1"
   id="svg8"
   inkscape:version="0.92.4 (5da689c313, 2019-01-14)"
   sodipodi:docname="Original Vykrutas Logo.svg">
  <defs
     id="defs2" />
  <sodipodi:namedview
     id="base"
     pagecolor="#ffffff"
     bordercolor="#666666"
     borderopacity="1.0"
     inkscape:pageopacity="0.0"
     inkscape:pageshadow="2"
     inkscape:zoom="0.70710678"
     inkscape:cx="206.76041"
     inkscape:cy="711.88414"
     inkscape:document-units="mm"
     inkscape:current-layer="layer3"
     showgrid="false"
     inkscape:window-width="1920"
     inkscape:window-height="1017"
     inkscape:window-x="-8"
     inkscape:window-y="-8"
     inkscape:window-maximized="1" />
  <metadata
     id="metadata5">
    <rdf:RDF>
      <cc:Work
         rdf:about="">
        <dc:format>image/svg+xml</dc:format>
        <dc:type
           rdf:resource="http://purl.org/dc/dcmitype/StillImage" />
        <dc:title></dc:title>
      </cc:Work>
    </rdf:RDF>
  </metadata>
  <g
     inkscape:groupmode="layer"
     id="layer4"
     inkscape:label="Layer 4"
     style="display:inline">
    <path
       style="fill:#ffffff;fill-opacity:1;stroke:none;stroke-width:0.26458332px;stroke-linecap:butt;stroke-linejoin:miter;stroke-opacity:1"
       d="m 34.490326,93.648809 c 0,0 -2.83482,0.472469 -2.078868,3.212796 0,0 4.654545,2.024501 9.001271,20.356345 l 0.637122,4.02312 c -0.01337,0.005 1.990029,-2.2719 0.729717,-6.61363 0,0 -5.359928,-21.545595 -8.289242,-20.978631 z"
       id="path1755"
       inkscape:connector-curvature="0"
       sodipodi:nodetypes="cccccc" />
    <path
       style="fill:#ffffff;fill-opacity:1;stroke:none;stroke-width:0.26458332px;stroke-linecap:butt;stroke-linejoin:miter;stroke-opacity:1"
       d="m 41.482885,116.51637 c 0,0 0.141743,0.89769 -1.039434,0.23623 0,0 -14.032365,-11.67001 -19.98549,-8.92968 0,0 -1.370163,1.13392 -0.425223,2.78757 0,0 2.173363,-1.22842 4.299479,0.14174 0,0 13.701637,5.43341 17.717634,10.48884 z"
       id="path1757"
       inkscape:connector-curvature="0" />
    <path
       style="fill:#ffffff;fill-opacity:1;stroke:none;stroke-width:0.26458332px;stroke-linecap:butt;stroke-linejoin:miter;stroke-opacity:1"
       d="m 54.050593,79.285713 c 0,0 -2.173361,-0.09449 -2.315104,1.889881 0,0 1.181178,0.377977 1.417413,1.842635 0,0 0.992187,6.047619 0.188988,11.717262 l 0.992187,1.81901 c 0,0 2.551335,-15.473402 -0.283484,-17.268788 z"
       id="path1759"
       inkscape:connector-curvature="0"
       sodipodi:nodetypes="cccccc" />
    <path
       style="fill:#ffffff;fill-opacity:1;stroke:none;stroke-width:0.26458332px;stroke-linecap:butt;stroke-linejoin:miter;stroke-opacity:1"
       d="m 59.484003,104.61012 c 0,0 -0.283483,2.03162 -1.370164,2.74032 0,0 -3.496279,-5.10267 -6.094866,-10.016363 0,0 -8.646205,-6.709077 -13.134672,-5.669643 0,0 0.09449,-1.937128 1.086681,-2.078869 0,0 2.55134,-1.88988 13.370908,5.149926 l 0.897693,1.181175 c 0,0 4.77195,7.512284 5.24442,8.693454 z"
       id="path1761"
       inkscape:connector-curvature="0" />
    <path
       style="fill:#ffffff;fill-opacity:1;stroke:none;stroke-width:0.26458332px;stroke-linecap:butt;stroke-linejoin:miter;stroke-opacity:1"
       d="m 59.153273,78.388019 c 0,0 -0.141742,0.8032 0.850445,1.889881 0,0 2.173365,-0.519716 3.543529,-1.55915 l 4.393973,21.213913 c 0,0 2.173363,0.519717 2.787575,-1.700893 l -2.362351,-10.394345 0.661458,-0.330729 c 0,0 11.146315,7.936033 13.207222,8.165629 0,0 1.533849,0.480576 3.234742,-0.84234 0,0 1.937128,-1.559152 1.889881,-4.110491 0,0 -2.476375,2.703801 -3.368868,2.729355 0,0 -2.773245,1.428383 -13.025849,-7.643046 0,0 6.378348,-10.347098 5.764137,-12.284226 0,0 -0.8032,-1.842634 -2.693081,-1.700893 0,0 1.417411,3.6571 -5.149925,14.429421 L 68.27195,86.467261 66.051339,75.080729 c 0,0 -5.669644,3.779759 -6.898066,3.30729 z"
       id="path1763"
       inkscape:connector-curvature="0"
       sodipodi:nodetypes="cccccccccccccccccc" />
  </g>
  <g
     inkscape:groupmode="layer"
     id="layer3"
     inkscape:label="Layer 3"
     style="display:inline">
    <path
       style="fill:#ffffff;fill-opacity:1;stroke:none;stroke-width:0.26458332px;stroke-linecap:butt;stroke-linejoin:miter;stroke-opacity:1"
       d="m 96.383929,71.584449 c 0,0 -2.882069,0.519715 -3.307292,0.944941 0,0 0.992188,-0.04725 0.566964,2.409598 l -2.551339,17.62314 c 0,0 0.377976,1.086681 3.260045,-0.425224 0,0 0.188988,-7.701265 1.653646,-15.733259 0,0 1.086682,-3.307291 0.377976,-4.819196 z"
       id="path1765"
       inkscape:connector-curvature="0" />
    <path
       style="fill:#ffffff;fill-opacity:1;stroke:none;stroke-width:0.26458332px;stroke-linecap:butt;stroke-linejoin:miter;stroke-opacity:1"
       d="m 100.82515,77.915549 c 0,0 9.52146,-4.792706 2.29266,-9.186681 -0.69085,-0.444118 -10.380838,-2.880553 -15.096604,6.588096 0,0 -1.086682,-0.566964 -0.188989,-2.645834 0,0 7.219677,-11.665176 17.859373,-5.764136 0,0 5.95674,3.303675 1.13393,8.504464 0,0 -4.44122,3.307292 -5.76414,3.685268 z"
       id="path1767"
       inkscape:connector-curvature="0"
       sodipodi:nodetypes="cccccccc" />
    <path
       style="fill:#ffffff;fill-opacity:1;stroke:none;stroke-width:0.26458332px;stroke-linecap:butt;stroke-linejoin:miter;stroke-opacity:1"
       d="m 100.82515,77.915547 c 0,0 -3.968752,-1.606397 -3.449034,2.929318 l 1.511905,-0.614211 c 0,0 4.015999,7.748512 6.567339,8.598959 0,0 2.4096,1.559151 4.39397,-0.661459 0,0 1.09813,-1.38172 1.70089,-2.88207 0,0 -1.57699,1.768439 -3.26004,1.370166 0,0 -1.85009,0.403536 -5.19096,-4.774811 z"
       id="path1769"
       inkscape:connector-curvature="0" />
    <path
       style="fill:none;stroke:none;stroke-width:0.26458332px;stroke-linecap:butt;stroke-linejoin:miter;stroke-opacity:1"
       d="m 109.84933,88.168153 c 0,0 1.41741,-1.181176 1.70089,-2.882069 0,0 -2.3151,2.315106 -3.26004,1.370166 0,0 -1.98438,0.992188 -7.2288,-7.559524"
       id="path1771"
       inkscape:connector-curvature="0" />
    <path
       style="fill:#ffffff;fill-opacity:1;stroke:none;stroke-width:0.26458332px;stroke-linecap:butt;stroke-linejoin:miter;stroke-opacity:1"
       d="m 118.33358,67.215022 c 0,0 0.46772,2.004523 9.02035,1.002262 0,0 -8.33283,14.465964 -7.01583,18.207737 0.20475,0.133648 0.56369,2.473801 4.84427,2.138156 1.1314,-0.210521 4.93385,-1.647789 8.51921,-7.049234 l -0.63477,4.242904 c 0,0 -8.78648,9.655112 -13.99824,4.042451 0,0 -3.14041,-3.073599 -0.60135,-9.822155 0,0 3.4745,-8.41899 5.07812,-9.822155 0,0 -7.2831,1.069076 -5.21176,-2.939966 z"
       id="path1773"
       inkscape:connector-curvature="0"
       sodipodi:nodetypes="cccccccccc" />
    <path
       style="fill:#ffffff;fill-opacity:1;stroke:none;stroke-width:0.26458332px;stroke-linecap:butt;stroke-linejoin:miter;stroke-opacity:1"
       d="m 140.45013,70.82316 -3.27405,0.601359 c 0,0 -4.74403,7.349911 -4.87766,18.909319 -0.0608,0.847291 2.07181,5.894543 7.41673,0.534539 0,0 -4.6104,1.804069 -4.87767,-1.403165 0.0343,0.02452 0.48501,-6.110981 1.77065,-9.220799 z"
       id="path1775"
       inkscape:connector-curvature="0"
       sodipodi:nodetypes="ccccccc" />
    <path
       style="fill:#ffffff;fill-opacity:1;stroke:none;stroke-width:0.26458332px;stroke-linecap:butt;stroke-linejoin:miter;stroke-opacity:1"
       d="m 149.87139,72.760866 c 0,0 -2.07134,1.5368 -2.2718,1.870887 0,0 5.21176,0.400904 8.35218,2.672695 L 143.99146,94.87742 c 0,0 0.0668,1.336347 3.27405,1.00226 l 11.62622,-17.305702 c 0,0 10.15625,5.746295 10.95805,-0.200452 0,0 -3.27405,2.204974 -9.15398,-1.002261 0,0 -8.61943,-4.610399 -10.82441,-4.610399 z"
       id="path1777"
       inkscape:connector-curvature="0" />
    <path
       style="fill:#ffffff;fill-opacity:1;stroke:#000000;stroke-width:0.26458332px;stroke-linecap:butt;stroke-linejoin:miter;stroke-opacity:1"
       d="m 183.41295,92.467633 c 0,0 -2.26786,-1.228424 -3.82701,-1.228424 0,0 -21.87537,3.874258 -24.7102,9.402161 0,0 0.61422,1.70089 2.97657,1.6064 0,0 -1.03944,-4.204988 20.12723,-9.638395 l 0.75595,0.566964 c 0,0 -11.71726,15.119051 -9.02418,19.229541 l 2.74033,0.23623 c 0,0 -1.13392,-7.65402 10.96131,-20.174477 z"
       id="path1779"
       inkscape:connector-curvature="0" />
    <path
       style="fill:#ffffff;fill-opacity:1;stroke:none;stroke-width:0.26458332px;stroke-linecap:butt;stroke-linejoin:miter;stroke-opacity:1"
       d="m 174.34152,102.15327 c 0,0 -7.19337,-3.980561 -9.50847,-6.768134 0,0 -2.77576,-3.862443 -6.0358,-2.256044 0,0 3.02381,1.381976 4.29948,2.941127 0,0 2.55134,3.862444 9.49665,7.075241 z"
       id="path1781"
       inkscape:connector-curvature="0"
       sodipodi:nodetypes="cccccc" />
    <path
       style="fill:#ffffff;fill-opacity:1;stroke:none;stroke-width:0.26458332px;stroke-linecap:butt;stroke-linejoin:miter;stroke-opacity:1"
       d="m 200.94159,112.92559 c 0,0 1.13393,0.42523 2.26786,-0.94494 0.009,-0.006 0.90202,-4.54529 -5.6224,-6.99256 -0.002,0.002 -8.67297,-2.47732 -8.50446,5.95313 -0.22256,0.0954 1.30994,11.12886 -4.67746,10.44159 0,0 -4.44122,-0.23623 -5.71689,-5.19717 0,0 -0.56696,-2.92932 1.6064,-4.44122 0,0 -5.10268,-2.36235 -3.9215,4.63021 0,0 0.75595,5.5279 8.03199,6.75632 0,0 5.95313,1.03944 7.1343,-4.86644 -0.002,0.009 0.61587,-4.06049 0.54335,-7.27604 0,0 -0.11812,-5.19718 3.80338,-4.63021 0,0 2.54848,0.0696 4.53285,2.52653 0,0 1.79825,2.85962 0.52258,4.0408 z"
       id="path1791"
       inkscape:connector-curvature="0"
       sodipodi:nodetypes="cccccccccccccc" />
    <path
       style="display:inline;fill:#ffffff;fill-opacity:1;stroke:none;stroke-width:0.05962115px;stroke-linecap:butt;stroke-linejoin:miter;stroke-opacity:1"
       d="m 47.219113,201.30397 c 0,0 0.232074,-0.14357 0.144038,-0.53457 1.71e-4,-0.003 -0.686096,-0.78717 -2.021507,0.0388 8.1e-5,6.8e-4 -1.636843,1.20496 -0.110525,2.33664 -0.01366,0.0528 2.164719,1.30003 1.217108,2.27284 0,0 -0.654127,0.75929 -1.714422,0.3031 0,0 -0.600407,-0.30257 -0.570477,-0.89841 0,0 -1.124351,0.58423 0.285148,1.33722 0,0 1.089761,0.62698 2.311434,-0.50101 0,0 1.005678,-0.91818 0.115464,-1.94261 0.0014,0.002 -0.639092,-0.66935 -1.222398,-1.09953 0,0 -0.942902,-0.69512 -0.301425,-1.31616 0,0 0.363594,-0.4448 1.0751,-0.46002 0,0 0.757654,0.0734 0.792462,0.46366 z"
       id="path1791-7"
       inkscape:connector-curvature="0"
       sodipodi:nodetypes="cccccccccccccc" />
    <path
       style="display:inline;fill:#ffffff;fill-opacity:1;stroke:none;stroke-width:0.06113707px;stroke-linecap:butt;stroke-linejoin:miter;stroke-opacity:1"
       d="m 94.445333,200.58737 c -0.38211,0.97016 1.26724,0.55338 1.26724,0.55338 -0.3357,0.36016 -0.93722,2.37696 -0.93722,2.37696 -0.42536,1.6109 0.36881,2.24369 0.36881,2.24369 1.14169,1.00282 2.61746,-0.63601 3.01415,-1.12164 -0.001,0.29758 0.0103,0.60944 0.0397,0.93439 0.006,0.1962 0.61446,1.30625 1.71739,-0.0513 0,0 -1.01749,0.52292 -1.15414,-0.20809 0.009,0.005 -0.032,-1.41624 0.190563,-2.16127 l 0.662507,-2.25557 -0.73864,0.21487 c 0,0 -0.50436,0.99247 -0.66714,2.59 -0.67464,1.17567 -1.44547,1.55978 -1.68794,1.631 -0.97611,0.17761 -1.11351,-0.35201 -1.16372,-0.37796 -0.39053,-0.82925 1.18574,-4.35004 1.18574,-4.35004 -1.94253,0.43101 -2.09723,-0.0185 -2.09723,-0.0185 z"
       id="path1773-3"
       inkscape:connector-curvature="0" />
    <path
       style="display:inline;fill:#ffffff;fill-opacity:1;stroke:#000000;stroke-width:0.05912928px;stroke-linecap:butt;stroke-linejoin:miter;stroke-opacity:1"
       d="m 115.63013,200.92415 c 0,0 -1.26367,1.32598 -2.20655,2.6742 -0.25657,-0.0604 -0.98033,-0.17144 -1.28646,0.41802 0,0 0.60814,-0.12617 1.04571,-0.0622 -0.48775,0.74896 -0.83245,1.46923 -0.75741,1.93389 0,0 0.33578,0.22498 0.74863,-0.10472 0,0 -0.35435,-0.29643 0.44579,-1.72586 0.40117,0.0783 1.16895,0.15768 2.23537,-0.0461 0.11986,0.96484 0.35211,1.86467 0.79885,2.03122 l 0.52469,-0.32024 c 0,0 -1.21743,-1.22803 -0.697,-5.08354 0,0 -0.57088,0.079 -0.85161,0.28539 z m -0.10793,0.45935 0.21116,0.002 c 0,0 -0.0275,1.09996 0.0793,2.23382 -0.46686,0.0481 -1.35011,0.1201 -1.96794,0.0567 0.36524,-0.59131 0.89986,-1.34182 1.67744,-2.29252 z"
       id="path1779-0"
       inkscape:connector-curvature="0" />
    <path
       style="display:inline;fill:#ffffff;fill-opacity:1;stroke:#000000;stroke-width:0.05912928px;stroke-linecap:butt;stroke-linejoin:miter;stroke-opacity:1"
       d="m 135.94412,200.97324 c 0,0 -1.26367,1.32598 -2.20655,2.6742 -0.25657,-0.0604 -0.98033,-0.17144 -1.28646,0.41802 0,0 0.60814,-0.12617 1.04571,-0.0622 -0.48775,0.74896 -0.83245,1.46923 -0.75741,1.93389 0,0 0.33578,0.22498 0.74863,-0.10472 0,0 -0.35435,-0.29643 0.44579,-1.72586 0.40117,0.0783 1.16895,0.15768 2.23537,-0.0461 0.11986,0.96484 0.35211,1.86467 0.79885,2.03122 l 0.52469,-0.32024 c 0,0 -1.21743,-1.22803 -0.697,-5.08354 0,0 -0.57088,0.079 -0.85161,0.28539 z m -0.10793,0.45935 0.21116,0.002 c 0,0 -0.0275,1.09996 0.0793,2.23382 -0.46686,0.0481 -1.35011,0.1201 -1.96794,0.0567 0.36524,-0.59131 0.89986,-1.34182 1.67744,-2.29252 z"
       id="path1779-0-0"
       inkscape:connector-curvature="0" />
    <path
       style="display:inline;fill:#ffffff;fill-opacity:1;stroke:#000000;stroke-width:0.05912928px;stroke-linecap:butt;stroke-linejoin:miter;stroke-opacity:1"
       d="m 157.12523,200.97324 c 0,0 -1.26367,1.32598 -2.20655,2.6742 -0.25657,-0.0604 -0.98033,-0.17144 -1.28646,0.41802 0,0 0.60814,-0.12617 1.04571,-0.0622 -0.48775,0.74896 -0.83245,1.46923 -0.75741,1.93389 0,0 0.33578,0.22498 0.74863,-0.10472 0,0 -0.35435,-0.29643 0.44579,-1.72586 0.40117,0.0783 1.16895,0.15768 2.23537,-0.0461 0.11986,0.96484 0.35211,1.86467 0.79885,2.03122 l 0.52469,-0.32024 c 0,0 -1.21743,-1.22803 -0.697,-5.08354 0,0 -0.57088,0.079 -0.85161,0.28539 z m -0.10793,0.45935 0.21116,0.002 c 0,0 -0.0275,1.09996 0.0793,2.23382 -0.46686,0.0481 -1.35011,0.1201 -1.96794,0.0567 0.36524,-0.59131 0.89986,-1.34182 1.67744,-2.29252 z"
       id="path1779-0-1"
       inkscape:connector-curvature="0" />
    <path
       style="display:inline;fill:#ffffff;fill-opacity:1;stroke:none;stroke-width:0.06042796px;stroke-linecap:butt;stroke-linejoin:miter;stroke-opacity:1"
       d="m 100.86997,200.80835 c 0,0 -0.09,0.1631 0.0442,0.47123 0,0 0.50809,0.0482 0.88098,-0.0752 l -0.61731,4.90921 c 0,0 0.43132,0.27284 0.72808,-0.16169 l 0.25721,-2.42086 0.16737,-0.0226 c 0,0 1.82273,2.53839 2.25117,2.74024 0,0 0.29599,0.21716 0.76132,0.0566 0,0 0.53381,-0.19387 0.71205,-0.74874 0,0 -0.73489,0.40142 -0.92967,0.34102 0,0 -0.70485,0.10386 -2.25057,-2.6139 0,0 2.14274,-1.76505 2.15308,-2.22905 0,0 -0.0375,-0.45756 -0.45639,-0.56651 0,0 0.0362,0.89504 -2.17878,2.73803 l -0.14879,0.002 0.36114,-2.62483 c 0,0 -1.50449,0.3981 -1.73508,0.20526 z"
       id="path1763-0"
       inkscape:connector-curvature="0"
       sodipodi:nodetypes="cccccccccccccccccc" />
    <path
       style="display:inline;fill:#ffffff;fill-opacity:1;stroke:none;stroke-width:0.05863051px;stroke-linecap:butt;stroke-linejoin:miter;stroke-opacity:1"
       d="m 109.2408,200.36923 c -1.6019,-0.11162 -2.73431,1.45187 -2.73431,1.45187 -0.23185,0.445 -7.6e-4,0.5878 -7.6e-4,0.5878 1.19459,-2.01679 3.29701,-1.3223 3.44255,-1.21304 1.52694,1.08743 -0.65458,1.99342 -0.65458,1.99342 0,0 -0.85126,-0.41884 -0.80938,0.59196 l 0.34395,-0.11147 c 0,0 0.76295,1.77713 1.31315,2.00613 0,0 0.50748,0.38338 0.98177,-0.0755 0,0 0.26488,-0.28769 0.42224,-0.60958 0,0 -0.37692,0.36541 -0.74248,0.25031 0,0 -0.41538,0.0594 -1.07042,-1.13883 l -0.32366,-0.67342 c 0.37019,-0.13518 1.25123,-0.69654 1.25123,-0.69654 1.14957,-1.07183 -0.11373,-1.8978 -0.11373,-1.8978 -0.45836,-0.2997 -0.89724,-0.43693 -1.30557,-0.46534 z m -0.82676,1.3494 c 0,0 -0.64532,0.0684 -0.74614,0.15555 0,0 0.22003,0.006 0.0865,0.5417 l -0.84743,3.85385 c 0,0 0.066,0.24624 0.72729,-0.0416 0,0 0.16571,-1.69905 0.61864,-3.45063 0,0 0.29345,-0.71339 0.16112,-1.05893 z"
       id="path1765-2"
       inkscape:connector-curvature="0" />
    <path
       style="fill:#ffffff;fill-opacity:1;stroke:none;stroke-width:0.26458332px;stroke-linecap:butt;stroke-linejoin:miter;stroke-opacity:1"
       d="m 52.548852,201.78523 c 0,0 0.634764,-1.00226 -0.668173,-1.1526 0,0 -1.720549,-0.30068 -2.823036,0.98556 0,0 -1.469982,1.50339 -0.902034,3.0736 0,0 0.434313,1.30294 1.904295,1.31964 0,0 1.670435,0.0668 2.572469,-0.98556 0,0 0.100226,-0.13363 -0.0167,-0.56794 0,0 -1.602278,1.35321 -2.654652,0.98572 0,0 -1.486183,-0.45052 -1.085279,-2.10425 0,0 0.233693,-1.15377 1.302771,-1.97228 0,0 0.766721,-0.51733 1.601939,-0.36699 0,0 0.350791,0.0334 0.283974,0.4176 0,0 -0.133634,0.46773 0.484426,0.3675 z"
       id="path1915"
       inkscape:connector-curvature="0"
       sodipodi:nodetypes="ccccccccccccc" />
    <path
       style="display:inline;fill:#ffffff;fill-opacity:1;stroke:none;stroke-width:0.26458332px;stroke-linecap:butt;stroke-linejoin:miter;stroke-opacity:1"
       d="m 170.42775,201.86688 c 0,0 0.63477,-1.00226 -0.66817,-1.1526 0,0 -1.72055,-0.30068 -2.82304,0.98556 0,0 -1.46998,1.50339 -0.90203,3.0736 0,0 0.43431,1.30294 1.90429,1.31964 0,0 1.67044,0.0668 2.57247,-0.98556 0,0 0.10023,-0.13363 -0.0167,-0.56794 0,0 -1.46998,1.36975 -2.52236,1.00226 0,0 -1.43657,-0.40091 -1.03567,-2.05464 0,0 0.21716,-1.26953 1.28624,-2.08804 0,0 0.60135,-0.46772 1.43657,-0.31738 0,0 0.35079,0.0334 0.28398,0.4176 0,0 -0.13364,0.46773 0.48442,0.3675 z"
       id="path1915-7"
       inkscape:connector-curvature="0" />
    <path
       style="fill:#ffffff;fill-opacity:1;stroke:none;stroke-width:0.26458332px;stroke-linecap:butt;stroke-linejoin:miter;stroke-opacity:1"
       d="m 58.525114,200.19708 c -0.102576,0.006 0.07933,-0.0418 -1.3e-5,1e-5 0,0 -0.60353,0.25985 -1.121365,2.63187 l -0.314195,-0.014 v 0 c -0.925526,0.0591 -2.036818,0.18397 -1.665544,-0.95653 0.103991,-0.4397 0.277429,-1.14299 0.401526,-1.44229 0,0 -1.105839,-0.26022 -1.623674,-0.0264 0.01857,-0.002 -0.571256,0.19738 -0.467153,0.71055 0.325421,-0.13919 0.591687,-0.24452 1.195937,-0.20264 -0.189865,0.58219 -0.312634,1.23493 -0.429503,1.84632 0,0 -1.250643,0.11009 -1.250643,0.94531 -0.004,0.007 0.417891,-0.26237 1.113406,-0.27019 l -0.411641,2.89277 c 0,0 0.06873,0.35079 0.736907,0 l 0.433565,-2.88975 c 0,0 1.185746,-0.0615 2.131655,-0.046 0.05329,0.005 -0.364644,1.58777 0.39584,2.35696 0,0 0.845429,0.77919 1.513602,-0.23978 0,0 -1.035971,0.28443 -1.152901,-0.25011 0,0 -0.367019,-0.59313 -0.133159,-1.84595 l 0.801336,-0.009 c 0,0 0.167081,-0.11688 0.150378,-0.51779 l -0.751377,-0.0165 c 0,0 0.267041,-1.70382 1.10226,-2.57245 0,0 -0.347533,-0.10355 -0.655257,-0.0848 z"
       id="path1934"
       inkscape:connector-curvature="0"
       sodipodi:nodetypes="ccccccccccccccccccccccccccc" />
    <path
       style="fill:#ffffff;fill-opacity:1;stroke:none;stroke-width:0.26458332px;stroke-linecap:butt;stroke-linejoin:miter;stroke-opacity:1"
       d="m 62.855431,203.27191 c 0,0 -0.885328,-1.2261 0.467722,-2.0112 0.02505,-0.0376 1.526317,-0.41441 1.752288,0.75838 0.04659,0 0.53744,1.84584 -1.180998,3.04855 0,0 -1.508402,0.6949 -2.260098,0.14365 -0.01256,0.002 -0.898401,-0.47557 -0.6949,-1.9377 0,0 0.381558,-1.09437 1.300301,-1.09437 l 0.08115,-0.47751 c 0,0 -1.141091,-0.62733 -1.987817,1.28623 0,0 -0.484426,1.38646 0.451017,2.40543 0,0 0.567948,0.80181 2.104748,0.61806 0,0 1.486686,-0.15034 2.455538,-1.46998 0,0 0.7684,-1.01897 0.601357,-2.55577 0,0 -0.183748,-1.08578 -1.453278,-1.41987 0,0 -1.986139,-0.44731 -2.370339,0.97256 0,0 -0.469404,1.26581 0.733311,1.73354 z"
       id="path1939"
       inkscape:connector-curvature="0"
       sodipodi:nodetypes="ccccccccccccccccc" />
    <path
       style="fill:#ffffff;fill-opacity:1;stroke:none;stroke-width:0.26458332px;stroke-linecap:butt;stroke-linejoin:miter;stroke-opacity:1"
       d="m 75.363732,200.52158 c 0,0 -0.166552,-0.46054 -0.757142,-0.0117 0,0 -0.897928,4.72399 -0.850681,5.03109 0,0 0.04606,0.50802 0.636648,0.53165 0,0 1.254657,0.14221 1.585387,4.3e-4 0,0 0.968563,-0.0708 1.204799,-1.08664 0,0 -0.568152,0.71419 -2.150928,0.45433 -0.01819,-0.0149 -0.717918,-0.0978 -0.376788,-1.28115 z"
       id="path1962"
       inkscape:connector-curvature="0"
       sodipodi:nodetypes="ccccccccc" />
    <path
       style="fill:#ffffff;fill-opacity:1;stroke:none;stroke-width:0.26458332px;stroke-linecap:butt;stroke-linejoin:miter;stroke-opacity:1"
       d="m 92.037925,200.74956 c 0,0 0,0.28397 -0.534541,0.53454 l -3.374276,-0.0668 c 0,0 -0.718287,0.0334 -0.818513,0.38418 0,0 -0.167044,-0.81851 1.219417,-0.7684 z"
       id="path1964"
       inkscape:connector-curvature="0" />
    <path
       style="fill:#ffffff;fill-opacity:1;stroke:none;stroke-width:0.26458332px;stroke-linecap:butt;stroke-linejoin:miter;stroke-opacity:1"
       d="m 89.316627,201.08365 -1.185505,5.86322 c 0,0 -0.553258,0.0835 -0.75371,0 l 1.286235,-5.86322 z"
       id="path1966"
       inkscape:connector-curvature="0"
       sodipodi:nodetypes="ccccc" />
    <path
       style="fill:#ffffff;fill-opacity:1;stroke:none;stroke-width:0.26458332px;stroke-linecap:butt;stroke-linejoin:miter;stroke-opacity:1"
       d="m 90.919814,203.45089 c 0,0 -0.330729,0.48428 -0.555151,0.50791 0,0 -3.082869,-0.14174 -3.106492,0.0709 0,0 -0.281804,-0.67271 2.186853,-0.54278 z"
       id="path1968"
       inkscape:connector-curvature="0"
       sodipodi:nodetypes="ccccc" />
    <path
       style="fill:#ffffff;fill-opacity:1;stroke:none;stroke-width:0.26458332px;stroke-linecap:butt;stroke-linejoin:miter;stroke-opacity:1"
       d="m 121.93874,201.05024 c 0,0 -0.90203,-0.3842 -2.93997,0.0835 -0.019,-0.0136 -0.0994,0.0746 -0.31738,-0.18373 0,0 1.58742,-0.73599 3.19104,-0.35179 0,0 0.4171,0.15134 0.0663,0.45202 z"
       id="path1970"
       inkscape:connector-curvature="0"
       sodipodi:nodetypes="ccccc" />
    <path
       style="fill:#ffffff;fill-opacity:1;stroke:none;stroke-width:0.26458332px;stroke-linecap:butt;stroke-linejoin:miter;stroke-opacity:1"
       d="m 120.87168,200.71599 -0.90405,4.87783 -0.55393,0.26711 0.68756,-5.12807 z"
       id="path1972"
       inkscape:connector-curvature="0"
       sodipodi:nodetypes="ccccc" />
    <path
       style="fill:#ffffff;fill-opacity:1;stroke:none;stroke-width:0.26458332px;stroke-linecap:butt;stroke-linejoin:miter;stroke-opacity:1"
       d="m 121.15364,206.11165 c 0.0268,-0.11583 -1.88667,-0.37665 -2.75588,0.0677 0,0 -0.28431,0.13278 -0.30102,-0.2347 -6.2e-4,7e-5 0.85784,-0.59583 2.97338,-0.43431 0,0 0.48445,0.28396 0.0835,0.60135 z"
       id="path1974"
       inkscape:connector-curvature="0"
       sodipodi:nodetypes="cccccc" />
    <path
       style="display:inline;fill:#ffffff;fill-opacity:1;stroke:none;stroke-width:0.26458332px;stroke-linecap:butt;stroke-linejoin:miter;stroke-opacity:1"
       d="m 140.06125,200.29592 c 0,0 -0.42012,-0.45436 -0.83772,-0.0701 0,0 0.98639,1.48585 1.4207,2.95583 0,0 0.83522,2.23838 1.46998,2.72281 0,0 0.31739,0.0835 0.60136,0.0501 0,0 1.68714,-1.9711 1.26953,-4.86095 0,0 -0.2823,-0.70994 -0.78343,-0.1754 0,0 0.53287,2.21333 -0.55292,4.33478 -0.36818,0.24855 -1.14024,-1.05746 -1.63769,-2.88184 -0.0438,-0.20545 -0.44612,-1.35125 -0.82704,-1.89397 z"
       id="path2021-7"
       inkscape:connector-curvature="0"
       sodipodi:nodetypes="ccccccccccc" />
    <path
       style="display:inline;fill:#ffffff;fill-opacity:1;stroke:none;stroke-width:0.26458332px;stroke-linecap:butt;stroke-linejoin:miter;stroke-opacity:1"
       d="m 140.18873,201.63754 c 0,0 -0.99419,2.115 -0.4981,4.17379 0,0 -0.50118,0.42995 -0.85671,0.12403 0,0 0.0579,-3.52227 1.10794,-4.67982 z"
       id="path2023-7"
       inkscape:connector-curvature="0"
       sodipodi:nodetypes="ccccc" />
    <path
       style="fill:#ffffff;fill-opacity:1;stroke:none;stroke-width:0.26458332px;stroke-linecap:butt;stroke-linejoin:miter;stroke-opacity:1"
       d="m 147.47634,202.5553 c 0,0 -0.37417,-0.0468 -0.19878,-0.6782 0,0 1.77734,-1.37978 3.20389,-1.22777 0,0 2.50232,-0.0585 2.81803,1.84751 -0.005,-0.003 0.31707,2.28082 -1.61364,3.30913 0,0 -1.73057,1.05237 -3.26236,0.40925 0,0 -0.9939,-0.0117 0.44434,-4.25626 0,0 0.40925,-0.40926 0.67819,-0.10523 0,0 -0.77174,2.22167 -0.81851,3.81192 0,0 1.67211,0.52619 3.12204,-0.87698 0,0 1.23946,-1.09914 0.35079,-2.60755 0.004,-0.003 -0.65999,-0.96791 -1.81242,-0.97052 0,0 -0.88868,-0.10524 -2.91157,1.3447 z"
       id="path2051"
       inkscape:connector-curvature="0"
       sodipodi:nodetypes="ccccccccccccc" />
    <path
       style="fill:#ffffff;fill-opacity:1;stroke:none;stroke-width:0.26458332px;stroke-linecap:butt;stroke-linejoin:miter;stroke-opacity:1"
       d="m 176.42634,200.62268 c 0,0 0.0476,0.35778 -0.44849,0.52315 l -3.4364,0.0254 c 0,0 -0.3638,0.0496 -0.49609,0.24807 0,0 -0.26458,-0.56224 0.69453,-0.62838 z"
       id="path2053"
       inkscape:connector-curvature="0"
       sodipodi:nodetypes="cccccc" />
    <path
       style="fill:#ffffff;fill-opacity:1;stroke:none;stroke-width:0.26458332px;stroke-linecap:butt;stroke-linejoin:miter;stroke-opacity:1"
       d="m 173.40134,200.97279 -0.71106,3.16673 c 0,0 -0.30466,1.24199 0.29766,1.2485 0,0 1.17981,0.11034 1.86861,-0.25631 0,0 0.74415,-0.14083 0.19844,0.53743 -0.003,-0.0177 -0.99735,0.63462 -2.66237,0.24804 0.0138,0.003 -0.74424,-0.0803 -0.4849,-1.41194 0.037,-0.14081 0.16189,-0.75353 0.22032,-1.08506 l 0.49609,-2.36471"
       id="path2055"
       inkscape:connector-curvature="0"
       sodipodi:nodetypes="ccccccccc" />
    <path
       style="fill:#ffffff;fill-opacity:1;stroke:none;stroke-width:0.26458332px;stroke-linecap:butt;stroke-linejoin:miter;stroke-opacity:1"
       d="m 174.88141,202.82058 c 0,0 0.0385,0.4363 -0.37076,0.51815 l -2.74786,-0.0117 c 0,0 -0.20562,-0.11775 0.0282,-0.35161 z"
       id="path2057"
       inkscape:connector-curvature="0"
       sodipodi:nodetypes="ccccc" />
    <path
       style="display:inline;fill:#ffffff;fill-opacity:1;stroke:none;stroke-width:0.26458332px;stroke-linecap:butt;stroke-linejoin:miter;stroke-opacity:1"
       d="m 123.87808,200.64645 c 0,0 -0.42012,-0.45436 -0.83772,-0.0701 0,0 0.98639,1.48585 1.4207,2.95583 0,0 0.83522,2.23838 1.46998,2.72281 0,0 0.31739,0.0835 0.60136,0.0501 0,0 1.68714,-1.9711 1.26953,-4.86095 0,0 -0.2823,-0.70994 -0.78343,-0.1754 0,0 0.53287,2.21333 -0.55292,4.33478 -0.36818,0.24855 -1.14024,-1.05746 -1.63769,-2.88184 -0.0438,-0.20545 -0.44612,-1.35125 -0.82704,-1.89397 z"
       id="path2021-7-8"
       inkscape:connector-curvature="0"
       sodipodi:nodetypes="ccccccccccc" />
    <path
       style="display:inline;fill:#ffffff;fill-opacity:1;stroke:none;stroke-width:0.26458332px;stroke-linecap:butt;stroke-linejoin:miter;stroke-opacity:1"
       d="m 124.00556,201.98807 c 0,0 -0.99419,2.115 -0.4981,4.17379 0,0 -0.50118,0.42995 -0.85671,0.12403 0,0 0.0579,-3.52227 1.10794,-4.67982 z"
       id="path2023-7-7"
       inkscape:connector-curvature="0"
       sodipodi:nodetypes="ccccc" />
    <path
       style="display:inline;fill:#ffffff;fill-opacity:1;stroke:none;stroke-width:0.26458332px;stroke-linecap:butt;stroke-linejoin:miter;stroke-opacity:1"
       d="m 132.15676,201.18524 c 0,0 -0.90203,-0.3842 -2.93997,0.0835 -0.019,-0.0136 -0.0994,0.0746 -0.31738,-0.18373 0,0 1.58742,-0.73599 3.19104,-0.35179 0,0 0.4171,0.15134 0.0663,0.45202 z"
       id="path1970-1"
       inkscape:connector-curvature="0"
       sodipodi:nodetypes="ccccc" />
    <path
       style="display:inline;fill:#ffffff;fill-opacity:1;stroke:none;stroke-width:0.26458332px;stroke-linecap:butt;stroke-linejoin:miter;stroke-opacity:1"
       d="m 131.0897,200.85099 -0.90405,4.87783 -0.55393,0.26711 0.68756,-5.12807 z"
       id="path1972-4"
       inkscape:connector-curvature="0"
       sodipodi:nodetypes="ccccc" />
    <path
       style="display:inline;fill:#ffffff;fill-opacity:1;stroke:none;stroke-width:0.26458332px;stroke-linecap:butt;stroke-linejoin:miter;stroke-opacity:1"
       d="m 131.37166,206.24665 c 0.0268,-0.11583 -1.88667,-0.37665 -2.75588,0.0677 0,0 -0.28431,0.13278 -0.30102,-0.2347 -6.2e-4,7e-5 0.85784,-0.59583 2.97338,-0.43431 0,0 0.48445,0.28396 0.0835,0.60135 z"
       id="path1974-1"
       inkscape:connector-curvature="0"
       sodipodi:nodetypes="cccccc" />
    <path
       style="display:inline;fill:#ffffff;fill-opacity:1;stroke:none;stroke-width:0.26458332px;stroke-linecap:butt;stroke-linejoin:miter;stroke-opacity:1"
       d="m 83.091218,203.31644 c 0,0 -0.885328,-1.2261 0.467722,-2.0112 0.02505,-0.0376 1.526317,-0.41441 1.752288,0.75838 0.04659,0 0.53744,1.84584 -1.180998,3.04855 0,0 -1.508402,0.6949 -2.260098,0.14365 -0.01256,0.002 -0.898401,-0.47557 -0.6949,-1.9377 0,0 0.381558,-1.09437 1.300301,-1.09437 l 0.08115,-0.47751 c 0,0 -1.141091,-0.62733 -1.987817,1.28623 0,0 -0.484426,1.38646 0.451017,2.40543 0,0 0.567948,0.80181 2.104748,0.61806 0,0 1.486686,-0.15034 2.455538,-1.46998 0,0 0.7684,-1.01897 0.601357,-2.55577 0,0 -0.183748,-1.08578 -1.453278,-1.41987 0,0 -1.986139,-0.44731 -2.370339,0.97256 0,0 -0.469404,1.26581 0.733311,1.73354 z"
       id="path1939-3"
       inkscape:connector-curvature="0"
       sodipodi:nodetypes="ccccccccccccccccc" />
    <path
       style="display:inline;fill:#ffffff;fill-opacity:1;stroke:none;stroke-width:0.26458332px;stroke-linecap:butt;stroke-linejoin:miter;stroke-opacity:1"
       d="m 69.414257,203.22483 c 0,0 -0.885328,-1.2261 0.467722,-2.0112 0.02505,-0.0376 1.526317,-0.41441 1.752288,0.75838 0.04659,0 0.53744,1.84584 -1.180998,3.04855 0,0 -1.508402,0.6949 -2.260098,0.14365 -0.01256,0.002 -0.898401,-0.47557 -0.6949,-1.9377 0,0 0.381558,-1.09437 1.300301,-1.09437 l 0.08115,-0.47751 c 0,0 -1.141091,-0.62733 -1.987817,1.28623 0,0 -0.484426,1.38646 0.451017,2.40543 0,0 0.567948,0.80181 2.104748,0.61806 0,0 1.486686,-0.15034 2.455538,-1.46998 0,0 0.7684,-1.01897 0.601357,-2.55577 0,0 -0.183748,-1.08578 -1.453278,-1.41987 0,0 -1.986139,-0.44731 -2.370339,0.97256 0,0 -0.469404,1.26581 0.733311,1.73354 z"
       id="path1939-4"
       inkscape:connector-curvature="0"
       sodipodi:nodetypes="ccccccccccccccccc" />
    <path
       style="display:inline;fill:#ffffff;fill-opacity:1;stroke:none;stroke-width:0.26458332px;stroke-linecap:butt;stroke-linejoin:miter;stroke-opacity:1"
       d="m 160.99429,200.45936 c 0,0 -0.42012,-0.45436 -0.83772,-0.0701 0,0 0.98639,1.48585 1.4207,2.95583 0,0 0.83522,2.23838 1.46998,2.72281 0,0 0.31739,0.0835 0.60136,0.0501 0,0 1.68714,-1.9711 1.26953,-4.86095 0,0 -0.2823,-0.70994 -0.78343,-0.1754 0,0 0.53287,2.21333 -0.55292,4.33478 -0.36818,0.24855 -1.14024,-1.05746 -1.63769,-2.88184 -0.0438,-0.20545 -0.44612,-1.35125 -0.82704,-1.89397 z"
       id="path2021-7-2"
       inkscape:connector-curvature="0"
       sodipodi:nodetypes="ccccccccccc" />
    <path
       style="display:inline;fill:#ffffff;fill-opacity:1;stroke:none;stroke-width:0.26458332px;stroke-linecap:butt;stroke-linejoin:miter;stroke-opacity:1"
       d="m 161.12177,201.80098 c 0,0 -0.99419,2.115 -0.4981,4.17379 0,0 -0.50118,0.42995 -0.85671,0.12403 0,0 0.0579,-3.52227 1.10794,-4.67982 z"
       id="path2023-7-2"
       inkscape:connector-curvature="0"
       sodipodi:nodetypes="ccccc" />
  </g>
  <g
     inkscape:label="Layer 1"
     inkscape:groupmode="layer"
     id="layer1"
     style="display:inline">
    <g
       style="display:inline"
       id="layer1-5"
       inkscape:label="Layer 1"
       transform="matrix(1.1343339,0,0,1.1343339,-8.3515463,-55.806905)">
      <g
         style="display:inline"
         inkscape:label="Layer 2"
         id="layer2"
         inkscape:groupmode="layer">
        <ellipse
           transform="rotate(19.406084)"
           ry="4.2828283"
           rx="3.1692929"
           cy="111.34258"
           cx="179.5838"
           id="path843"
           style="fill:#ffffff;fill-opacity:1;stroke:#000000;stroke-width:0.12295839;stroke-opacity:1" />
      </g>
      <ellipse
         transform="matrix(-0.99998719,0.00506228,0.04861854,-0.99881742,0,0)"
         ry="4.2476153"
         rx="3.1313267"
         cy="-196.03247"
         cx="-91.62249"
         id="path843-0"
         style="display:inline;fill:#ffffff;fill-opacity:1;stroke:#000000;stroke-width:0.12171621;stroke-opacity:1" />
      <path
         sodipodi:nodetypes="cccsscc"
         inkscape:connector-curvature="0"
         id="path888"
         d="m 128.5328,164.12102 c 0,0 1.41981,-4.60422 5.19586,-4.1813 0,0 3.6833,1.1406 2.02183,6.48752 0,0 2.91467,-0.9438 2.43134,-5.08238 -0.20922,-1.79137 -0.67711,-2.82494 -2.64066,-3.70099 -1.44103,-0.64294 -3.37298,-0.97401 -5.00424,0.26454 0,0 -3.51454,2.49694 -2.00413,6.21261 z"
         style="fill:#ffffff;fill-opacity:1;stroke:#000000;stroke-width:0.11962014px;stroke-linecap:butt;stroke-linejoin:miter;stroke-opacity:1" />
      <path
         sodipodi:nodetypes="ccc"
         inkscape:connector-curvature="0"
         id="path890"
         d="m 128.25129,162.34843 c -0.36974,0.013 -1.59924,1.2024 0.28151,1.77259 z"
         style="fill:#ffffff;fill-opacity:1;stroke:#000000;stroke-width:0.11962014px;stroke-linecap:butt;stroke-linejoin:miter;stroke-opacity:1" />
      <path
         sodipodi:nodetypes="ccc"
         inkscape:connector-curvature="0"
         id="path890-7"
         d="m 128.51838,160.62439 c -0.35182,-0.11443 -1.91433,0.58194 -0.34261,1.7618 z"
         style="display:inline;fill:#ffffff;fill-opacity:1;stroke:#000000;stroke-width:0.11962014px;stroke-linecap:butt;stroke-linejoin:miter;stroke-opacity:1" />
      <path
         sodipodi:nodetypes="ccc"
         inkscape:connector-curvature="0"
         id="path890-8"
         d="m 129.37656,159.2047 c -0.31395,-0.19569 -1.99812,0.10443 -0.75632,1.62767 z"
         style="display:inline;fill:#ffffff;fill-opacity:1;stroke:#000000;stroke-width:0.11962014px;stroke-linecap:butt;stroke-linejoin:miter;stroke-opacity:1" />
      <path
         sodipodi:nodetypes="ccc"
         inkscape:connector-curvature="0"
         id="path890-89"
         d="m 130.46561,157.98002 c -0.26619,-0.2786 -2.04287,-0.41116 -1.1838,1.44665 z"
         style="display:inline;fill:#ffffff;fill-opacity:1;stroke:#000000;stroke-width:0.12458252px;stroke-linecap:butt;stroke-linejoin:miter;stroke-opacity:1" />
      <path
         inkscape:transform-center-y="-0.88646672"
         inkscape:transform-center-x="-0.19225171"
         sodipodi:nodetypes="ccc"
         inkscape:connector-curvature="0"
         id="path890-80"
         d="m 132.17751,157.44079 c -0.0673,-0.36378 -1.42459,-1.40497 -1.7119,0.53923 z"
         style="display:inline;fill:#ffffff;fill-opacity:1;stroke:#000000;stroke-width:0.11962014px;stroke-linecap:butt;stroke-linejoin:miter;stroke-opacity:1" />
      <path
         sodipodi:nodetypes="ccc"
         inkscape:connector-curvature="0"
         id="path890-0"
         d="m 133.70266,157.14122 c 0.003,-0.36994 -1.13749,-1.64604 -1.78241,0.21044 z"
         style="display:inline;fill:#ffffff;fill-opacity:1;stroke:#000000;stroke-width:0.11962014px;stroke-linecap:butt;stroke-linejoin:miter;stroke-opacity:1" />
      <path
         inkscape:transform-center-y="-0.25633033"
         inkscape:transform-center-x="-0.085433936"
         sodipodi:nodetypes="ccc"
         inkscape:connector-curvature="0"
         id="path890-5"
         d="m 135.43647,157.60517 c 0.13853,-0.34304 -0.44782,-1.95009 -1.73381,-0.46395 z"
         style="display:inline;fill:#ffffff;fill-opacity:1;stroke:#000000;stroke-width:0.11962014px;stroke-linecap:butt;stroke-linejoin:miter;stroke-opacity:1" />
      <path
         sodipodi:nodetypes="ccc"
         inkscape:connector-curvature="0"
         id="path890-2"
         d="m 136.99199,158.50054 c 0.22232,-0.29573 0.0702,-1.99961 -1.55552,-0.89537 z"
         style="display:inline;fill:#ffffff;fill-opacity:1;stroke:#000000;stroke-width:0.11962014px;stroke-linecap:butt;stroke-linejoin:miter;stroke-opacity:1" />
      <path
         sodipodi:nodetypes="ccc"
         inkscape:connector-curvature="0"
         id="path890-1"
         d="m 137.81356,159.80477 c 0.2989,-0.21801 0.65047,-1.89216 -1.22669,-1.31018 z"
         style="display:inline;fill:#ffffff;fill-opacity:1;stroke:#000000;stroke-width:0.11962014px;stroke-linecap:butt;stroke-linejoin:miter;stroke-opacity:1" />
      <path
         sodipodi:nodetypes="ccc"
         inkscape:connector-curvature="0"
         id="path890-4"
         d="m 138.19542,161.79483 c 0.42133,-0.0598 1.68608,-1.59217 -0.53291,-2.02782 z"
         style="display:inline;fill:#ffffff;fill-opacity:1;stroke:#000000;stroke-width:0.13871881px;stroke-linecap:butt;stroke-linejoin:miter;stroke-opacity:1" />
      <path
         sodipodi:nodetypes="ccc"
         inkscape:connector-curvature="0"
         id="path890-9"
         d="m 137.95158,163.79263 c 0.36539,0.0692 1.79963,-1.04357 0.0625,-2.14063 z"
         style="display:inline;fill:#ffffff;fill-opacity:1;stroke:#000000;stroke-width:0.13067639px;stroke-linecap:butt;stroke-linejoin:miter;stroke-opacity:1" />
      <path
         sodipodi:nodetypes="ccc"
         inkscape:connector-curvature="0"
         id="path890-83"
         d="m 136.98332,165.45345 c 0.41478,0.20918 2.54864,-0.245 0.85754,-1.9473 z"
         style="display:inline;fill:#ffffff;fill-opacity:1;stroke:#000000;stroke-width:0.1463955px;stroke-linecap:butt;stroke-linejoin:miter;stroke-opacity:1" />
      <path
         sodipodi:nodetypes="ccc"
         inkscape:connector-curvature="0"
         id="path890-24"
         d="m 135.75049,166.42724 c 0.25133,0.29036 2.10009,0.57763 1.38385,-1.27587 z"
         style="display:inline;fill:#ffffff;fill-opacity:1;stroke:#000000;stroke-width:0.12524684px;stroke-linecap:butt;stroke-linejoin:miter;stroke-opacity:1" />
      <path
         sodipodi:nodetypes="ccc"
         inkscape:connector-curvature="0"
         id="path973"
         d="m 112.23533,155.54436 c 0,0 9.82671,16.30841 39.67268,19.69177 -1.64981,3.69199 -37.57836,-3.91405 -39.67268,-19.69177 z"
         style="fill:#ffffff;fill-opacity:1;stroke:none;stroke-width:0.11962014px;stroke-linecap:butt;stroke-linejoin:miter;stroke-opacity:1" />
      <path
         sodipodi:nodetypes="ccccc"
         inkscape:connector-curvature="0"
         id="path975"
         d="m 127.20363,175.49717 c 0,0 -3.21811,0.7148 -2.00979,6.51485 1.44886,-1.06918 7.55116,30.06159 -0.47486,34.96918 1.47996,-0.87309 1.67875,-24.77609 -1.72943,-32.95008 -0.98453,-4.29212 -0.71919,-9.27422 2.71005,-10.39141"
         style="fill:#ffffff;fill-opacity:1;stroke:#000000;stroke-width:0.11962014px;stroke-linecap:butt;stroke-linejoin:miter;stroke-opacity:1" />
      <path
         sodipodi:nodetypes="cccccc"
         inkscape:connector-curvature="0"
         id="path979"
         d="m 126.31717,175.76418 c -0.0825,-0.059 7.22448,1.63201 -1.68125,5.98618 l 0.51355,2.50732 c 0,0 9.90837,-5.13548 7.34064,-9.48552 0,0 -3.56798,-4.59289 -8.50228,-0.003 z"
         style="fill:#ffffff;fill-opacity:1;stroke:#000000;stroke-width:0.11962014px;stroke-linecap:butt;stroke-linejoin:miter;stroke-opacity:1" />
      <path
         sodipodi:nodetypes="cccc"
         inkscape:connector-curvature="0"
         id="path981"
         d="m 123.96269,182.29752 c 0,0 -26.329861,8.47333 -0.78256,17.27395 -0.13484,-2.87213 -18.72218,-7.15244 0.39807,-14.75338 z"
         style="fill:#ffffff;fill-opacity:1;stroke:#000000;stroke-width:0.11962014px;stroke-linecap:butt;stroke-linejoin:miter;stroke-opacity:1" />
      <path
         sodipodi:nodetypes="ccsc"
         inkscape:connector-curvature="0"
         id="path989"
         d="m 83.402666,190.82623 c 0.340846,-0.13937 -4.981637,-1.50275 -4.903164,5.05983 -0.394874,0.30377 -4.855289,-3.21949 -3.232836,-6.00084 0.0017,-0.003 2.960234,-3.60411 8.136,0.94101 z"
         style="fill:#ffffff;fill-opacity:1;stroke:#000000;stroke-width:0.11832632px;stroke-linecap:butt;stroke-linejoin:miter;stroke-opacity:1" />
      <path
         sodipodi:nodetypes="ccccc"
         inkscape:connector-curvature="0"
         id="path991"
         d="m 75.2518,189.91729 c 0,0 -1.421964,2.58803 -0.0058,6.1378 l 0.9931,0.0211 c 0,0 0.02112,-1.33117 0.633891,-2.00732 z"
         style="fill:#ffffff;fill-opacity:1;stroke:#000000;stroke-width:0.11832632px;stroke-linecap:butt;stroke-linejoin:miter;stroke-opacity:1" />
      <ellipse
         ry="1.2998631"
         rx="1.0570725"
         cy="197.16281"
         cx="75.732872"
         id="path993"
         style="fill:#ffffff;fill-opacity:1;stroke:#000000;stroke-width:0.11832632;stroke-opacity:1" />
      <path
         sodipodi:nodetypes="cccc"
         inkscape:connector-curvature="0"
         id="path1005"
         d="m 76.677195,197.69807 c 0.100781,0.0505 -0.80652,1.1629 -0.998504,1.74307 0,0 -0.693636,-1.27204 -0.919139,-1.79075 z"
         style="fill:#ffffff;fill-opacity:1;stroke:#000000;stroke-width:0.11832632px;stroke-linecap:butt;stroke-linejoin:miter;stroke-opacity:1" />
      <path
         sodipodi:nodetypes="ccc"
         inkscape:connector-curvature="0"
         id="path973-1"
         d="m 56.392097,195.77106 c 0,0 15.22512,11.02679 51.625563,2.27027 -1.08483,4.8007 -40.78965,12.04174 -51.625563,-2.27027 z"
         style="display:inline;fill:#ffffff;fill-opacity:1;stroke:#000000;stroke-width:0.13463888px;stroke-linecap:butt;stroke-linejoin:miter;stroke-opacity:1" />
      <path
         sodipodi:nodetypes="ccccc"
         inkscape:connector-curvature="0"
         id="path1026"
         d="m 111.93666,213.59101 c 0.37406,0.22443 -14.203933,1.79865 -32.681853,-7.51899 l -2.648735,1.40982 c -8.2e-5,1.3e-4 6.409021,2.88251 14.268979,6.83544 0,0 12.001729,5.67687 21.061609,-0.72627 z"
         style="fill:#ffffff;fill-opacity:1;stroke:#000000;stroke-width:0.11962014px;stroke-linecap:butt;stroke-linejoin:miter;stroke-opacity:1" />
      <path
         sodipodi:nodetypes="cccccccccccc"
         inkscape:connector-curvature="0"
         id="path1028"
         d="m 79.254807,206.07202 c -0.338132,-0.22837 -5.913292,-2.23699 -10.323491,-0.20006 -0.100937,0.003 -3.797317,1.9754 -3.111495,4.99955 0,0 0.906258,2.93024 4.893808,3.08126 0,0 5.486597,-0.34041 7.430426,0.62083 0,0 2.029265,0.89715 2.09335,2.69145 0,0 1.064371,-2.918 -0.964894,-4.11422 -0.121645,-0.0992 -2.152593,-1.31176 -5.648312,-1.55889 0,0 -3.362262,0.0339 -2.700074,-2.35853 0,0 0.191217,-1.32862 2.396452,-1.81195 -7.19e-4,3.4e-4 2.537385,-0.3298 3.856893,0.31137 z"
         style="fill:#ffffff;fill-opacity:1;stroke:#000000;stroke-width:0.11962014px;stroke-linecap:butt;stroke-linejoin:miter;stroke-opacity:1" />
      <path
         inkscape:connector-curvature="0"
         id="path1038"
         d="m 111.97856,155.3178 c 0,0 -1.29897,-2.23543 -0.57396,-4.22921 0,0 0.90625,-2.23545 4.22919,-1.17815 0,0 -5.66773,-2.06178 -3.65523,5.40736 z"
         style="fill:#ffffff;fill-opacity:1;stroke:#000000;stroke-width:0.11962014px;stroke-linecap:butt;stroke-linejoin:miter;stroke-opacity:1" />
      <path
         sodipodi:nodetypes="cccccccc"
         inkscape:connector-curvature="0"
         id="path1040"
         d="m 115.19645,150.01457 c 0,0 5.93529,2.16153 7.59675,1.70839 0,0 2.25054,-1.61616 3.06616,-1.91824 0,0 -3.70055,0.61927 -5.51304,-0.22658 0,0 -4.28961,-1.45 -6.0115,-1.26874 0,0 -3.03032,0.0692 -3.66471,1.91198 0,0 -0.73062,3.87297 1.56522,5.32298 -2.59197,-6.7244 2.94428,-5.52137 2.96112,-5.52979 z"
         style="fill:#ffffff;fill-opacity:1;stroke:none;stroke-width:0.11962014px;stroke-linecap:butt;stroke-linejoin:miter;stroke-opacity:1" />
      <path
         sodipodi:nodetypes="ccccc"
         inkscape:connector-curvature="0"
         id="path1042"
         d="m 123.29396,149.77952 c 0.0477,0.0853 2.41917,-0.0527 2.59324,-0.20083 0,0 2.1981,-1.39429 -0.55742,-6.26451 0,0 -2.71279,0.0855 -2.79824,1.00394 0,0 2.514,4.03023 0.76242,5.4614 z"
         style="fill:#ffffff;fill-opacity:1;stroke:none;stroke-width:0.11962014px;stroke-linecap:butt;stroke-linejoin:miter;stroke-opacity:1" />
      <path
         inkscape:connector-curvature="0"
         id="path1050"
         d="m 111.97856,155.3178 c 0,0 -6.02287,-9.26945 -1.49441,-15.37863 0,0 -1.49524,-0.85442 -3.03322,-0.55537 0,0 -4.23105,7.26042 4.52763,15.934 z"
         style="fill:#ffffff;fill-opacity:1;stroke:none;stroke-width:0.11962014px;stroke-linecap:butt;stroke-linejoin:miter;stroke-opacity:1" />
      <path
         inkscape:connector-curvature="0"
         id="path1052"
         d="m 79.594975,145.62082 c 0,0 -0.885983,0.78537 1.168204,1.99371"
         style="fill:#ffffff;fill-opacity:1;stroke:#000000;stroke-width:0.11962014px;stroke-linecap:butt;stroke-linejoin:miter;stroke-opacity:1"
         sodipodi:nodetypes="cc" />
      <path
         sodipodi:nodetypes="ccccccccc"
         inkscape:connector-curvature="0"
         id="path1054"
         d="m 79.594975,145.62082 c -1.472368,0.53106 -0.211461,1.51042 -0.54376,1.87294 -0.332299,0.3625 -0.302087,0.99687 -0.302087,0.99687 0.0302,0.36251 3.141692,2.29587 3.141692,2.29587 0.966692,0.75521 2.628159,2.44689 2.628159,2.44689 1.57085,1.26878 0.85,3.38405 0.85,3.38405 0.542364,-0.28006 1.716644,-1.28968 1.707315,-1.45583 1.057309,-4.62192 -6.393815,-7.69807 -6.393815,-7.69807 0,0 -1.238552,-0.7099 -1.087504,-1.84272"
         style="fill:#ffffff;fill-opacity:1;stroke:none;stroke-width:0.11962014px;stroke-linecap:butt;stroke-linejoin:miter;stroke-opacity:1" />
      <path
         sodipodi:nodetypes="cccccc"
         inkscape:connector-curvature="0"
         id="path1056"
         d="m 87.067501,155.56455 c 0.01543,0.0117 -0.565911,0.68099 -1.772948,1.50592 0,0 -7.391272,4.77239 -17.90388,-1.93392 0,0 -1.683096,0.90866 -1.139338,2.53993 0,-0.14906 7.301906,7.34485 19.385358,1.93094 0.03176,0.0245 0.743342,-2.9084 1.430808,-4.04287 z"
         style="fill:#ffffff;fill-opacity:1;stroke:none;stroke-width:0.11962014px;stroke-linecap:butt;stroke-linejoin:miter;stroke-opacity:1" />
      <path
         sodipodi:nodetypes="ccccccc"
         inkscape:connector-curvature="0"
         id="path1058"
         d="m 111.97856,155.3178 c 0,0 -10.63677,-10.29478 -30.160464,-8.9277 -0.317613,0.054 -1.367826,0.12564 -1.306496,0.79575 -0.0041,-0.003 -1.292551,-0.60837 -1.127965,-1.47425 0,0 2.94712,-3.16642 16.489832,-0.0477 0,0 14.267243,4.26991 16.105093,9.65394 z"
         style="fill:#ffffff;fill-opacity:1;stroke:none;stroke-width:0.11962014px;stroke-linecap:butt;stroke-linejoin:miter;stroke-opacity:1" />
      <path
         inkscape:connector-curvature="0"
         id="path1062"
         d="m 111.97856,155.3178 c 0,0 -4.2896,-3.65526 -6.25316,3.65524 0,0 -0.0303,-3.02086 1.05729,-4.07816 0,0 1.60106,-1.66149 3.92711,-0.84585 z"
         style="fill:#ffffff;fill-opacity:1;stroke:none;stroke-width:0.11962014px;stroke-linecap:butt;stroke-linejoin:miter;stroke-opacity:1" />
      <path
         sodipodi:nodetypes="cccccccc"
         inkscape:connector-curvature="0"
         id="path1064"
         d="m 106.54537,157.27779 c 0,0 -0.66271,1.83705 -0.72312,2.22975 0,0 0.0542,3.72492 1.68545,7.19892 0,0 1.38959,4.07817 -2.1448,6.49485 -0.24789,0.0413 -0.27437,2.63864 0.99689,3.20213 0.63437,-0.30209 3.95732,-1.51045 4.19897,-6.19278 0,0 0.66459,-2.96045 -2.08437,-7.09904 0,0 -2.47277,-3.2963 -1.92902,-5.83383 z"
         style="fill:#ffffff;fill-opacity:1;stroke:none;stroke-width:0.11962014px;stroke-linecap:butt;stroke-linejoin:miter;stroke-opacity:1" />
      <path
         inkscape:connector-curvature="0"
         id="path1070"
         d="m 110.7098,154.04903 c 0,0 -10.30787,-5.26651 -13.12747,3.06418 0,0 -0.939881,-2.81961 2.349669,-4.61392 0,0 3.631301,-2.22152 8.117031,-0.3845 z"
         style="fill:#ffffff;fill-opacity:1;stroke:#000000;stroke-width:0.11962014px;stroke-linecap:butt;stroke-linejoin:miter;stroke-opacity:1" />
      <path
         sodipodi:nodetypes="cccccc"
         inkscape:connector-curvature="0"
         id="path1072"
         d="m 99.002291,154.9258 c 0,0 -1.195994,1.71742 -1.238721,2.70001 0,0 4.26177,9.35606 0.07508,13.11555 0,0 3.71676,-1.7943 4.48574,-6.23735 0,0 0.76897,-4.35759 -2.734168,-8.33068 0,0 -0.306668,-0.40503 -0.587935,-1.24753 z"
         style="fill:#ffffff;fill-opacity:1;stroke:none;stroke-width:0.11962014px;stroke-linecap:butt;stroke-linejoin:miter;stroke-opacity:1" />
      <path
         sodipodi:nodetypes="ccccc"
         inkscape:connector-curvature="0"
         id="path1074"
         d="m 99.50246,169.99919 c 0,0 -14.651133,12.10608 -40.796685,-2.76098 0,0 -1.212115,0.85085 -0.870336,3.49958 0,0 20.522214,13.84532 40.515873,3.67762 -0.40312,-0.0863 -0.09927,-3.45935 1.151148,-4.41622 z"
         style="fill:#ffffff;fill-opacity:1;stroke:none;stroke-width:0.11962014px;stroke-linecap:butt;stroke-linejoin:miter;stroke-opacity:1" />
      <g
         transform="matrix(0.4263785,-0.00667443,0.00667443,0.4263785,109.38017,118.14691)"
         id="text1100"
         style="font-style:normal;font-variant:normal;font-weight:normal;font-stretch:normal;font-size:118.38815308px;line-height:1.25;font-family:Aldhabi;-inkscape-font-specification:'Aldhabi, Normal';font-variant-ligatures:normal;font-variant-caps:normal;font-variant-numeric:normal;font-feature-settings:normal;text-align:start;letter-spacing:0px;word-spacing:0px;writing-mode:lr-tb;text-anchor:start;fill:#ffffff;fill-opacity:1;stroke:none;stroke-width:2.95970392"
         aria-label="VYKRUTAS">
        <path
           id="path1130"
           transform="matrix(0.54691504,0.00856128,-0.00856128,0.54691504,-236.67614,-165.41321)"
           style="stroke-width:5.41097069"
           d="m 645.26562,468.38281 c -0.0511,0.0956 -0.082,0.18642 -0.1289,0.28125 0.0333,0.0555 0.07,0.10873 0.10351,0.16406 0.0126,-0.12198 0.0265,-0.25429 0.043,-0.41601 -0.006,-0.01 -0.0118,-0.0195 -0.0176,-0.0293 z"
           inkscape:connector-curvature="0" />
      </g>
      <text
         id="text1154"
         y="-120.28571"
         x="-881.44049"
         style="font-style:normal;font-weight:normal;font-size:10.58333302px;line-height:1.25;font-family:sans-serif;letter-spacing:0px;word-spacing:0px;fill:#ffffff;fill-opacity:1;stroke:none;stroke-width:0.26458332"
         xml:space="preserve"><tspan
           style="stroke-width:0.26458332"
           y="-110.63022"
           x="-881.44049"
           id="tspan1152"
           sodipodi:role="line" /></text>
      <g
         transform="matrix(0.41173567,0.01669433,-0.01669433,0.41173567,186.7795,147.60693)"
         id="text1176"
         style="font-style:normal;font-variant:normal;font-weight:normal;font-stretch:normal;font-size:40.57227707px;line-height:1.25;font-family:Aldhabi;-inkscape-font-specification:'Aldhabi, Normal';font-variant-ligatures:normal;font-variant-caps:normal;font-variant-numeric:normal;font-feature-settings:normal;text-align:start;letter-spacing:0px;word-spacing:0px;writing-mode:lr-tb;text-anchor:start;fill:#ffffff;fill-opacity:1;stroke:none;stroke-width:1.0143069"
         inkscape:transform-center-y="24.224724"
         inkscape:transform-center-x="46.071938"
         aria-label="UKRAINIAN DANCE SOCIETY">
        <path
           inkscape:connector-curvature="0"
           id="path1199"
           style="font-style:normal;font-variant:normal;font-weight:normal;font-stretch:normal;font-size:40.57227707px;font-family:Aldhabi;-inkscape-font-specification:'Aldhabi, Normal';font-variant-ligatures:normal;font-variant-caps:normal;font-variant-numeric:normal;font-feature-settings:normal;text-align:start;writing-mode:lr-tb;text-anchor:start;stroke-width:1.0143069"
           d="m -231.96684,246.25757 q 0,0 0,0 z" />
        <path
           inkscape:connector-curvature="0"
           id="path1211"
           style="font-style:normal;font-variant:normal;font-weight:normal;font-stretch:normal;font-size:40.57227707px;font-family:Aldhabi;-inkscape-font-specification:'Aldhabi, Normal';font-variant-ligatures:normal;font-variant-caps:normal;font-variant-numeric:normal;font-feature-settings:normal;text-align:start;writing-mode:lr-tb;text-anchor:start;stroke-width:1.0143069"
           d="m -142.53716,233.42998 q 0,0 0,0 z" />
      </g>
    </g>
  </g>
</svg>
